<svg id="Layer_1" data-name="Layer 1" xmlns="http://www.w3.org/2000/svg" viewBox="0 0 35.33 33.32"><defs><style>.cls-1{fill:#9ebe5c;}</style></defs><title>facebook</title><g id="kpcoRK"><path class="cls-1" d="M14.14,33.32V18.1H9c0-.14,0-5.7,0-5.91h5.12V7.82a9.88,9.88,0,0,1,.4-2.91,6.64,6.64,0,0,1,1.95-3.13A6.74,6.74,0,0,1,19.37.29,8,8,0,0,1,21.6,0c1,0,2,0,3,.08.5,0,1,.07,1.5.11a1.81,1.81,0,0,1,.23,0c0,.12,0,5,0,5.3H23.05a4.61,4.61,0,0,0-1.23.16A2,2,0,0,0,20.43,7a1.63,1.63,0,0,0-.07.3,8.28,8.28,0,0,0-.09,1c0,1.24,0,2.49,0,3.73v.14h5.85l-.77,5.9H20.26V33.32Z"/></g></svg>