<svg id="Layer_1" data-name="Layer 1" xmlns="http://www.w3.org/2000/svg" viewBox="0 0 98.26 88.29"><defs><style>.cls-1{fill:#fff;}</style></defs><title>icon_white</title><path class="cls-1" d="M74.25,32A.69.69,0,0,1,74,32c-4.14-1.64-6.65-4.26-7.07-7.37-.56-4.06,3.12-6.15,5.56-6.51a6.34,6.34,0,0,1,4.88,1.18,8.19,8.19,0,0,1,2.94,5.39.65.65,0,1,1-1.29.15,6.89,6.89,0,0,0-2.44-4.5,5,5,0,0,0-3.9-.93c-2,.29-4.89,1.91-4.47,5.05.48,3.53,4.14,5.49,6.28,6.33A.65.65,0,0,1,74.25,32Z"/><path class="cls-1" d="M58.15,73.12c-3.23,0-5.81-1-7.17-2.8a6.06,6.06,0,0,1-.82-5.59,4,4,0,0,1,3-2.61c1.52-.31,3.33.59,5.39,2.68a25.48,25.48,0,0,1,2.55,3.06.65.65,0,0,1-1.08.73,23.06,23.06,0,0,0-2.41-2.89C56,64,54.47,63.19,53.45,63.39a2.76,2.76,0,0,0-2.08,1.8A4.78,4.78,0,0,0,52,69.53c1.25,1.66,3.87,2.48,7.19,2.26a.65.65,0,1,1,.09,1.29C58.9,73.11,58.52,73.12,58.15,73.12Z"/><path class="cls-1" d="M97.43,55.8A25.37,25.37,0,0,0,81.25,38.39c-8.4-3.11-17-6.91-17.49-14.72-.24-3.58,2.53-8.83,9.79-9.14,6.19-.26,8.62,5.1,9.44,11.16.05.38,7.77-3.2,7.77-3.2S88.85,8.84,75.7,8.84c0,0-17,0-17.4,13.32a18.35,18.35,0,0,0,5.1,12.35c6.63,6.76,15,8.59,21,16.24q-.9,1.62-1.83,3.21c-4.72-6.73-19.49-15.3-21.44-17.28-4-4.06-4.25-8.12-4.25-8.12-4.77,2.92-3.57,7.49-3,9.31,1.61,5,16.13,13,21.74,19.69A34.48,34.48,0,0,1,78.15,61a51.1,51.1,0,0,1-4.32,5.42c-4.6-6.7-11.22-13.8-18.56-13.64-5.09.11-13.75,3.74-13.75,15.12,0,6.52,6.55,12,13.16,12.19a29.62,29.62,0,0,0,14.83-3.84c1.69,2.85,3.55,6.17,5.6,10.05L92.67,74.08S100.82,66.43,97.43,55.8ZM77.2,11.74c7.09.63,9,9,9,9.07a.49.49,0,0,1-.37.58h-.1a.49.49,0,0,1-.47-.38c0-.08-1.78-7.75-8.17-8.32a.48.48,0,1,1,.09-1ZM60.71,41.69c-4.17-3.24-4.38-4.67-4.35-5l1,.09v0s.15,1.25,4,4.22c.63.44,15.86,11.15,19.21,15.65a14.2,14.2,0,0,1,3.05,7.68.47.47,0,0,1-.43.52h0a.49.49,0,0,1-.48-.44,13.38,13.38,0,0,0-2.86-7.2C76.46,52.77,60.87,41.8,60.71,41.69ZM55,74.85a8,8,0,0,1-7.57-8.29c0-2.91,1.74-7.39,5.86-7.39,2.18,0,5.9.87,13.62,12.87A20.83,20.83,0,0,1,55,74.85Zm22.33,6.62a.41.41,0,0,1-.21,0,.47.47,0,0,1-.43-.27C76.61,81,66.3,59.55,57.18,57.32a.48.48,0,0,1-.35-.58.47.47,0,0,1,.58-.35c4,1,8.67,5.41,13.76,13.16a108.9,108.9,0,0,1,6.42,11.28A.48.48,0,0,1,77.36,81.47Zm11.37-9.9L80.36,77.9a74.7,74.7,0,0,0-3.75-7.13,40.89,40.89,0,0,0,4.22-5,37.86,37.86,0,0,1,2.7,7.78c3-6.37,2.41-11.49,1.48-14.63.8-1.56,1.44-3,1.94-4.24C89.7,60.15,89.36,66.37,88.73,71.57Zm5.32-4.41a.48.48,0,0,1-.47.35h-.12a.48.48,0,0,1-.34-.59,20.44,20.44,0,0,0-.41-9.08c0-.1-2.06-9.44-10.11-14a.48.48,0,0,1-.18-.65.48.48,0,0,1,.66-.19c8.43,4.81,10.48,14.25,10.57,14.65C95,63.41,94.09,67,94.05,67.16Z"/><path class="cls-1" d="M12.09,88.29A.56.56,0,0,1,12,87.18l.33,0c15.4-2,18.1-28.35,18.55-39.61a.56.56,0,1,1,1.11,0c-.64,16.1-3.74,27.7-9.23,34.5-2.91,3.6-6.37,5.68-10.28,6.18l-.26,0Z"/><path class="cls-1" d="M46.81,0C44.07,0,27.29-1,22.05,34c-1.14,7.66-1.78,31.38-8.71,38.31C11.6,74.06,4.93,77.72,0,73.47l.38,12s14.47,2.64,21.45-9c4-6.68,5.15-19.13,6.56-31.73A43.81,43.81,0,0,1,42.16,34.31V55.82c2.93-4.74,9.48-5.46,9.48-5.46v-43c3.46,2.84,3.93,9,4.33,8.44.62-.92,3.08-6.08,6.41-7.21A18.14,18.14,0,0,0,46.81,0ZM16.38,77.19a15.15,15.15,0,0,1-10.55,4,14.86,14.86,0,0,1-2.95-.26.56.56,0,1,1,.24-1.09c.07,0,7.32,1.49,12.49-3.43,3.28-3.14,6.9-9.95,8.76-36.73a.57.57,0,0,1,.6-.52.56.56,0,0,1,.52.6C23.6,66.82,20,73.74,16.38,77.19ZM42.16,29.08a45.25,45.25,0,0,0-13,9c1.8-14,4.64-27,13-30.89Zm5.3,16.23a.56.56,0,0,1-1.12,0V10.12a.56.56,0,1,1,1.12,0ZM57.37,9.76a.46.46,0,0,1-.23.05.55.55,0,0,1-.51-.33,11.06,11.06,0,0,0-10.22-6,.56.56,0,1,1,0-1.12A12.34,12.34,0,0,1,57.65,9,.55.55,0,0,1,57.37,9.76Z"/><path class="cls-1" d="M33.61,31.08h-.07a.57.57,0,0,1-.48-.64c.77-5.37,2.5-12.48,4.86-14.86a.56.56,0,0,1,.79,0,.56.56,0,0,1,0,.79c-1.76,1.78-3.59,7.5-4.55,14.24A.56.56,0,0,1,33.61,31.08Z"/><path class="cls-1" d="M55.11,26.85a.56.56,0,0,1-.56-.56V18.55a.56.56,0,1,1,1.12,0v7.74A.56.56,0,0,1,55.11,26.85Z"/></svg>