<svg id="Layer_1" data-name="Layer 1" xmlns="http://www.w3.org/2000/svg" viewBox="0 0 43 40"><defs><style>.cls-1{fill:#9ebe5c;}</style></defs><title>linkedIn</title><g id="vdKsLp"><path class="cls-1" d="M17.22,35.37V14.88h6.5c.23,0,.31.06.3.31,0,.83,0,1.66,0,2.57l.49-.67a6.69,6.69,0,0,1,5.66-2.68,7.86,7.86,0,0,1,4.18,1.1,7,7,0,0,1,2.78,3.32A12.32,12.32,0,0,1,38,23.62V35.35H31.18V24.59a8,8,0,0,0-.37-2.7,3,3,0,0,0-3.33-2.1,3.61,3.61,0,0,0-3.29,2.68A5.3,5.3,0,0,0,24,24.12c0,3.64,0,7.27,0,10.91,0,.34,0,.34-.34.34H17.22Z"/><path class="cls-1" d="M13.42,35.35H6.64c0-.1,0-.19,0-.28q0-10,0-19.92c0-.24.08-.29.3-.29h6.22c.23,0,.3.05.3.29q0,10,0,19.92Z"/><path class="cls-1" d="M10,12.07A3.65,3.65,0,0,1,6.8,10.5,3.48,3.48,0,0,1,8.7,5.2a4.15,4.15,0,0,1,3.74.5A3.31,3.31,0,0,1,13.83,9a3.2,3.2,0,0,1-2.22,2.77,14.06,14.06,0,0,1-1.59.35Z"/></g></svg>